<svg width="1050" height="705" viewBox="0 0 1050 705" fill="none" xmlns="http://www.w3.org/2000/svg">
<g clip-path="url(#clip0)">
<rect width="1764" height="878" fill="#064632"/>
<path opacity="0.12" d="M722.242 0C758.314 0 785.987 17.5447 805.083 46.294L1279.17 698.635L1338.59 780.373C1412.61 882.21 1522.93 891.25 1601.48 865.753C1680.04 840.254 1763.98 768.167 1763.98 642.295V0.000166824" stroke="white" stroke-width="0.1"/>
<path opacity="0.12" d="M715.092 0C751.164 0 778.836 17.5447 797.933 46.294L1272.02 698.635L1331.44 780.373C1405.46 882.21 1515.78 891.25 1594.33 865.753C1672.89 840.254 1756.83 768.167 1756.83 642.295V0.000166824" stroke="white" stroke-width="0.119"/>
<path opacity="0.12" d="M707.939 0C744.013 0 771.686 17.5447 790.78 46.294L1264.87 698.635L1324.29 780.373C1398.31 882.21 1508.63 891.25 1587.18 865.753C1665.74 840.254 1749.68 768.167 1749.68 642.295V0.000166824" stroke="white" stroke-width="0.138"/>
<path opacity="0.12" d="M700.789 0C736.861 0 764.534 17.5447 783.63 46.294L1257.71 698.635L1317.14 780.373C1391.16 882.21 1501.48 891.25 1580.03 865.753C1658.59 840.254 1742.53 768.167 1742.53 642.295L1742.53 0.000166824" stroke="white" stroke-width="0.156"/>
<path opacity="0.12" d="M693.639 0C729.712 0 757.385 17.5447 776.479 46.294L1250.56 698.635L1309.99 780.373C1384.01 882.21 1494.33 891.25 1572.88 865.753C1651.44 840.254 1735.38 768.167 1735.38 642.295V0.000166824" stroke="white" stroke-width="0.175"/>
<path opacity="0.12" d="M686.488 0C722.56 0 750.233 17.5447 769.329 46.294L1243.41 698.635L1302.84 780.373C1376.86 882.21 1487.18 891.25 1565.73 865.753C1644.29 840.254 1728.23 768.167 1728.23 642.295V0.000166824" stroke="white" stroke-width="0.194"/>
<path opacity="0.12" d="M679.336 0C715.41 0 743.082 17.5447 762.177 46.294L1236.26 698.635L1295.69 780.373C1369.71 882.21 1480.03 891.25 1558.58 865.753C1637.14 840.254 1721.07 768.167 1721.07 642.295V0.000166824" stroke="white" stroke-width="0.213"/>
<path opacity="0.12" d="M672.186 0C708.259 0 735.932 17.5447 755.026 46.294L1229.11 698.635L1288.53 780.373C1362.56 882.21 1472.88 891.25 1551.43 865.753C1629.99 840.254 1713.92 768.167 1713.92 642.295V0.000166824" stroke="white" stroke-width="0.232"/>
<path opacity="0.12" d="M665.035 0C701.107 0 728.78 17.5447 747.874 46.294L1221.96 698.635L1281.38 780.373C1355.41 882.21 1465.72 891.25 1544.28 865.753C1622.84 840.254 1706.77 768.167 1706.77 642.295V0.000166824" stroke="white" stroke-width="0.25"/>
<path opacity="0.12" d="M657.883 0C693.955 0 721.629 17.5447 740.724 46.294L1214.81 698.635L1274.23 780.373C1348.26 882.21 1458.57 891.25 1537.12 865.753C1615.68 840.254 1699.62 768.167 1699.62 642.295V0.000166824" stroke="white" stroke-width="0.269"/>
<path opacity="0.12" d="M650.732 0C686.806 0 714.479 17.5447 733.573 46.294L1207.66 698.635L1267.08 780.373C1341.11 882.21 1451.42 891.25 1529.97 865.753C1608.53 840.254 1692.47 768.167 1692.47 642.295V0.000166824" stroke="white" stroke-width="0.288"/>
<path opacity="0.12" d="M643.582 0C679.656 0 707.328 17.5447 726.423 46.294L1200.51 698.635L1259.93 780.373C1333.96 882.21 1444.27 891.25 1522.82 865.753C1601.38 840.254 1685.32 768.167 1685.32 642.295V0.000166824" stroke="white" stroke-width="0.307"/>
<path opacity="0.12" d="M636.432 0C672.504 0 700.176 17.5447 719.272 46.294L1193.36 698.635L1252.78 780.373C1326.8 882.21 1437.12 891.25 1515.67 865.753C1594.23 840.254 1678.17 768.167 1678.17 642.295V0.000166824" stroke="white" stroke-width="0.326"/>
<path opacity="0.12" d="M629.281 0C665.353 0 693.026 17.5447 712.12 46.294L1186.21 698.635L1245.63 780.373C1319.65 882.21 1429.97 891.25 1508.52 865.753C1587.08 840.254 1671.02 768.167 1671.02 642.295V0.000166824" stroke="white" stroke-width="0.345"/>
<path opacity="0.12" d="M622.129 0C658.201 0 685.873 17.5447 704.97 46.294L1179.05 698.635L1238.48 780.373C1312.5 882.21 1422.82 891.25 1501.37 865.753C1579.93 840.254 1663.87 768.167 1663.87 642.295V0.000166824" stroke="white" stroke-width="0.363"/>
<path opacity="0.12" d="M614.977 0C651.05 0 678.723 17.5447 697.819 46.294L1171.9 698.635L1231.33 780.373C1305.35 882.21 1415.67 891.25 1494.22 865.753C1572.78 840.254 1656.72 768.167 1656.72 642.295V0.000166824" stroke="white" stroke-width="0.382"/>
<path opacity="0.12" d="M607.828 0C643.902 0 671.573 17.5447 690.669 46.294L1164.75 698.635L1224.18 780.373C1298.2 882.21 1408.52 891.25 1487.07 865.753C1565.63 840.254 1649.57 768.167 1649.57 642.295V0.000166824" stroke="white" stroke-width="0.401"/>
<path opacity="0.12" d="M600.678 0C636.75 0 664.422 17.5447 683.517 46.294L1157.6 698.635L1217.03 780.373C1291.05 882.21 1401.37 891.25 1479.92 865.753C1558.48 840.254 1642.41 768.167 1642.41 642.295V0.000166824" stroke="white" stroke-width="0.42"/>
<path opacity="0.12" d="M593.525 0C629.597 0 657.272 17.5447 676.366 46.294L1150.45 698.635L1209.87 780.373C1283.9 882.21 1394.21 891.25 1472.77 865.753C1551.33 840.254 1635.26 768.167 1635.26 642.295V0.000166824" stroke="white" stroke-width="0.439"/>
<path opacity="0.12" d="M586.375 0C622.447 0 650.119 17.5447 669.216 46.294L1143.3 698.635L1202.72 780.373C1276.75 882.21 1387.06 891.25 1465.62 865.753C1544.17 840.254 1628.11 768.167 1628.11 642.295V0.000166824" stroke="white" stroke-width="0.457"/>
<path opacity="0.12" d="M579.223 0C615.296 0 642.969 17.5447 662.063 46.294L1136.15 698.635L1195.57 780.373C1269.6 882.21 1379.91 891.25 1458.46 865.753C1537.02 840.254 1620.96 768.167 1620.96 642.295V0.000166824" stroke="white" stroke-width="0.476"/>
<path opacity="0.12" d="M572.072 0C608.146 0 635.817 17.5447 654.911 46.294L1129 698.635L1188.42 780.373C1262.44 882.21 1372.76 891.25 1451.31 865.753C1529.87 840.254 1613.81 768.167 1613.81 642.295V0.000166824" stroke="white" stroke-width="0.495"/>
<path opacity="0.12" d="M564.922 0C600.996 0 628.668 17.5447 647.763 46.294L1121.85 698.635L1181.27 780.373C1255.3 882.21 1365.61 891.25 1444.16 865.753C1522.72 840.254 1606.66 768.167 1606.66 642.295V0.000166824" stroke="white" stroke-width="0.514"/>
<path opacity="0.12" d="M557.771 0C593.844 0 621.516 17.5447 640.612 46.294L1114.7 698.635L1174.12 780.373C1248.14 882.21 1358.46 891.25 1437.01 865.753C1515.57 840.254 1599.51 768.167 1599.51 642.295V0.000166824" stroke="white" stroke-width="0.533"/>
<path opacity="0.12" d="M550.619 0C586.693 0 614.365 17.5447 633.46 46.294L1107.55 698.635L1166.97 780.373C1240.99 882.21 1351.31 891.25 1429.86 865.753C1508.42 840.254 1592.36 768.167 1592.36 642.295V0.000166824" stroke="white" stroke-width="0.551"/>
<path opacity="0.12" d="M543.469 0C579.542 0 607.213 17.5447 626.309 46.294L1100.4 698.635L1159.82 780.373C1233.84 882.21 1344.16 891.25 1422.71 865.753C1501.27 840.254 1585.21 768.167 1585.21 642.295V0.000166824" stroke="white" stroke-width="0.57"/>
<path opacity="0.12" d="M536.318 0C572.39 0 600.063 17.5447 619.157 46.294L1093.24 698.635L1152.67 780.373C1226.69 882.21 1337.01 891.25 1415.56 865.753C1494.12 840.254 1578.06 768.167 1578.06 642.295V0.000166824" stroke="white" stroke-width="0.589"/>
<path opacity="0.12" d="M529.168 0C565.242 0 592.914 17.5447 612.009 46.294L1086.09 698.635L1145.52 780.373C1219.54 882.21 1329.86 891.25 1408.41 865.753C1486.97 840.254 1570.91 768.167 1570.91 642.295V0.000166824" stroke="white" stroke-width="0.608"/>
<path opacity="0.12" d="M522.018 0C558.09 0 585.762 17.5447 604.858 46.294L1078.94 698.635L1138.37 780.373C1212.39 882.21 1322.71 891.25 1401.26 865.753C1479.82 840.254 1563.75 768.167 1563.75 642.295V0.000166824" stroke="white" stroke-width="0.627"/>
<path opacity="0.12" d="M514.865 0C550.939 0 578.61 17.5447 597.706 46.294L1071.79 698.635L1131.21 780.373C1205.24 882.21 1315.55 891.25 1394.11 865.753C1472.67 840.254 1556.6 768.167 1556.6 642.295V0.000166824" stroke="white" stroke-width="0.646"/>
<path opacity="0.12" d="M507.715 0C543.789 0 571.459 17.5447 590.554 46.294L1064.64 698.635L1124.06 780.373C1198.09 882.21 1308.4 891.25 1386.96 865.753C1465.51 840.254 1549.45 768.167 1549.45 642.295V0.000166824" stroke="white" stroke-width="0.664"/>
<path opacity="0.12" d="M500.564 0C536.636 0 564.309 17.5447 583.404 46.294L1057.49 698.635L1116.91 780.373C1190.94 882.21 1301.25 891.25 1379.81 865.753C1458.36 840.254 1542.3 768.167 1542.3 642.295L1542.3 0.000166824" stroke="white" stroke-width="0.683"/>
<path opacity="0.12" d="M493.414 0C529.486 0 557.159 17.5447 576.255 46.294L1050.34 698.635L1109.76 780.373C1183.79 882.21 1294.1 891.25 1372.66 865.753C1451.21 840.254 1535.15 768.167 1535.15 642.295V0.000166824" stroke="white" stroke-width="0.702"/>
<path opacity="0.12" d="M486.262 0C522.335 0 550.008 17.5447 569.102 46.294L1043.19 698.635L1102.61 780.373C1176.63 882.21 1286.95 891.25 1365.5 865.753C1444.06 840.254 1528 768.167 1528 642.295V0.000166824" stroke="white" stroke-width="0.721"/>
<path opacity="0.12" d="M479.111 0C515.185 0 542.856 17.5447 561.952 46.294L1036.04 698.635L1095.46 780.373C1169.48 882.21 1279.8 891.25 1358.35 865.753C1436.91 840.254 1520.85 768.167 1520.85 642.295V0.000166824" stroke="white" stroke-width="0.74"/>
<path opacity="0.12" d="M471.961 0C508.033 0 535.705 17.5447 554.8 46.294L1028.89 698.635L1088.31 780.373C1162.33 882.21 1272.65 891.25 1351.2 865.753C1429.76 840.254 1513.7 768.167 1513.7 642.295V0.000166824" stroke="white" stroke-width="0.758"/>
<path opacity="0.12" d="M464.809 0C500.882 0 528.555 17.5447 547.649 46.294L1021.73 698.635L1081.16 780.373C1155.18 882.21 1265.5 891.25 1344.05 865.753C1422.61 840.254 1506.55 768.167 1506.55 642.295V0.000166824" stroke="white" stroke-width="0.777"/>
<path opacity="0.12" d="M457.658 0C493.73 0 521.403 17.5447 540.499 46.294L1014.58 698.635L1074.01 780.373C1148.03 882.21 1258.35 891.25 1336.9 865.753C1415.46 840.254 1499.4 768.167 1499.4 642.295V0.000166824" stroke="white" stroke-width="0.796"/>
<path opacity="0.12" d="M450.508 0C486.582 0 514.254 17.5447 533.349 46.294L1007.43 698.635L1066.86 780.373C1140.88 882.21 1251.2 891.25 1329.75 865.753C1408.31 840.254 1492.25 768.167 1492.25 642.295V0.000166824" stroke="white" stroke-width="0.815"/>
<path opacity="0.12" d="M443.357 0C479.429 0 507.102 17.5447 526.198 46.294L1000.28 698.635L1059.71 780.373C1133.73 882.21 1244.05 891.25 1322.6 865.753C1401.16 840.254 1485.1 768.167 1485.1 642.295V0.000166824" stroke="white" stroke-width="0.834"/>
<path opacity="0.12" d="M436.207 0C472.279 0 499.951 17.5447 519.046 46.294L993.132 698.635L1052.55 780.373C1126.58 882.21 1236.9 891.25 1315.45 865.753C1394.01 840.254 1477.94 768.167 1477.94 642.295V0.000166824" stroke="white" stroke-width="0.852"/>
<path opacity="0.12" d="M429.055 0C465.127 0 492.799 17.5447 511.895 46.294L985.979 698.635L1045.4 780.373C1119.43 882.21 1229.74 891.25 1308.3 865.753C1386.85 840.254 1470.79 768.167 1470.79 642.295V0.000166824" stroke="white" stroke-width="0.871"/>
<path opacity="0.12" d="M421.904 0C457.976 0 485.649 17.5447 504.745 46.294L978.829 698.635L1038.25 780.373C1112.28 882.21 1222.59 891.25 1301.14 865.753C1379.7 840.254 1463.64 768.167 1463.64 642.295V0.000166824" stroke="white" stroke-width="0.89"/>
<path opacity="0.12" d="M414.752 0C450.826 0 478.496 17.5447 497.593 46.294L971.678 698.635L1031.1 780.373C1105.12 882.21 1215.44 891.25 1293.99 865.753C1372.55 840.254 1456.49 768.167 1456.49 642.295V0.000166824" stroke="white" stroke-width="0.909"/>
<path opacity="0.12" d="M407.604 0C443.676 0 471.348 17.5447 490.443 46.294L964.53 698.635L1023.95 780.373C1097.97 882.21 1208.29 891.25 1286.84 865.753C1365.4 840.254 1449.34 768.167 1449.34 642.295V0.000166824" stroke="white" stroke-width="0.928"/>
<path opacity="0.12" d="M400.451 0C436.525 0 464.197 17.5447 483.292 46.294L957.377 698.635L1016.8 780.373C1090.82 882.21 1201.14 891.25 1279.69 865.753C1358.25 840.254 1442.19 768.167 1442.19 642.295V0.000166824" stroke="white" stroke-width="0.947"/>
<path opacity="0.12" d="M393.301 0C429.373 0 457.045 17.5447 476.142 46.294L950.225 698.635L1009.65 780.373C1083.67 882.21 1193.99 891.25 1272.54 865.753C1351.1 840.254 1435.04 768.167 1435.04 642.295L1435.04 0.000166824" stroke="white" stroke-width="0.965"/>
<path opacity="0.12" d="M386.148 0C422.222 0 449.895 17.5447 468.989 46.294L943.075 698.635L1002.5 780.373C1076.52 882.21 1186.84 891.25 1265.39 865.753C1343.95 840.254 1427.89 768.167 1427.89 642.295V0.000166824" stroke="white" stroke-width="0.984"/>
<path opacity="0.12" d="M378.998 0C415.07 0 442.743 17.5447 461.839 46.294L935.924 698.635L995.347 780.373C1069.37 882.21 1179.69 891.25 1258.24 865.753C1336.8 840.254 1420.74 768.167 1420.74 642.295V0.000166824" stroke="white" stroke-width="1.003"/>
<path opacity="0.12" d="M371.848 0C407.921 0 435.594 17.5447 454.688 46.294L928.774 698.635L988.197 780.373C1062.22 882.21 1172.54 891.25 1251.09 865.753C1329.65 840.254 1413.59 768.167 1413.59 642.295V0.000166824" stroke="white" stroke-width="1.022"/>
<path opacity="0.12" d="M364.697 0C400.769 0 428.443 17.5447 447.538 46.294L921.622 698.635L981.046 780.373C1055.07 882.21 1165.39 891.25 1243.94 865.753C1322.5 840.254 1406.43 768.167 1406.43 642.295L1406.44 0.000166824" stroke="white" stroke-width="1.041"/>
<path opacity="0.12" d="M357.547 0C393.619 0 421.291 17.5447 440.388 46.294L914.471 698.635L973.894 780.373C1047.92 882.21 1158.24 891.25 1236.79 865.753C1315.35 840.254 1399.28 768.167 1399.28 642.295V0.000166824" stroke="white" stroke-width="1.059"/>
<path opacity="0.12" d="M350.395 0C386.467 0 414.139 17.5447 433.235 46.294L907.321 698.635L966.744 780.373C1040.77 882.21 1151.08 891.25 1229.64 865.753C1308.19 840.254 1392.13 768.167 1392.13 642.295V0.000166824" stroke="white" stroke-width="1.078"/>
<path opacity="0.12" d="M343.244 0C379.316 0 406.989 17.5447 426.083 46.294L900.169 698.635L959.591 780.373C1033.62 882.21 1143.93 891.25 1222.48 865.753C1301.04 840.254 1384.98 768.167 1384.98 642.295V0.000166824" stroke="white" stroke-width="1.097"/>
<path opacity="0.12" d="M336.092 0C372.166 0 399.838 17.5447 418.933 46.294L893.018 698.635L952.441 780.373C1026.46 882.21 1136.78 891.25 1215.33 865.753C1293.89 840.254 1377.83 768.167 1377.83 642.295V0.000166824" stroke="white" stroke-width="1.116"/>
<path opacity="0.12" d="M328.941 0C365.013 0 392.686 17.5447 411.782 46.294L885.868 698.635L945.29 780.373C1019.31 882.21 1129.63 891.25 1208.18 865.753C1286.74 840.254 1370.68 768.167 1370.68 642.295V0.000166824" stroke="white" stroke-width="1.135"/>
<path opacity="0.12" d="M321.791 0C357.865 0 385.537 17.5447 404.632 46.294L878.717 698.635L938.14 780.373C1012.16 882.21 1122.48 891.25 1201.03 865.753C1279.59 840.254 1363.53 768.167 1363.53 642.295V0.000166824" stroke="white" stroke-width="1.153"/>
<path opacity="0.12" d="M314.641 0C350.713 0 378.385 17.5447 397.481 46.294L871.567 698.635L930.988 780.373C1005.01 882.21 1115.33 891.25 1193.88 865.753C1272.44 840.254 1356.38 768.167 1356.38 642.295V0.000166824" stroke="white" stroke-width="1.172"/>
<path opacity="0.12" d="M307.488 0C343.561 0 371.234 17.5447 390.329 46.294L864.414 698.635L923.837 780.373C997.861 882.21 1108.18 891.25 1186.73 865.753C1265.29 840.254 1349.23 768.167 1349.23 642.295V0.000166824" stroke="white" stroke-width="1.191"/>
<path opacity="0.12" d="M300.338 0C336.412 0 364.084 17.5447 383.179 46.294L857.264 698.635L916.687 780.373C990.711 882.21 1101.03 891.25 1179.58 865.753C1258.14 840.254 1342.08 768.167 1342.08 642.295V0.000166824" stroke="white" stroke-width="1.21"/>
<path opacity="0.12" d="M293.188 0C329.26 0 356.933 17.5447 376.027 46.294L850.113 698.635L909.535 780.373C983.559 882.21 1093.88 891.25 1172.43 865.753C1250.99 840.254 1334.93 768.167 1334.93 642.295V0.000166824" stroke="white" stroke-width="1.229"/>
<path opacity="0.12" d="M286.037 0C322.109 0 349.781 17.5447 368.877 46.294L842.963 698.635L902.386 780.373C976.408 882.21 1086.73 891.25 1165.28 865.753C1243.84 840.254 1327.78 768.167 1327.78 642.295V0.000166824" stroke="white" stroke-width="1.248"/>
<path opacity="0.12" d="M278.885 0C314.958 0 342.63 17.5447 361.725 46.294L835.81 698.635L895.233 780.373C969.257 882.21 1079.58 891.25 1158.13 865.753C1236.68 840.254 1320.62 768.167 1320.62 642.295V0.000166824" stroke="white" stroke-width="1.266"/>
<path opacity="0.12" d="M271.734 0C307.807 0 335.48 17.5447 354.575 46.294L828.66 698.635L888.083 780.373C962.107 882.21 1072.43 891.25 1150.97 865.753C1229.53 840.254 1313.47 768.167 1313.47 642.295V0.000166824" stroke="white" stroke-width="1.285"/>
<path opacity="0.12" d="M264.584 0C300.657 0 328.329 17.5447 347.425 46.294L821.509 698.635L880.933 780.373C954.956 882.21 1065.27 891.25 1143.83 865.753C1222.38 840.254 1306.32 768.167 1306.32 642.295V0.000166824" stroke="white" stroke-width="1.304"/>
<path opacity="0.12" d="M257.434 0C293.506 0 321.179 17.5447 340.273 46.294L814.359 698.635L873.782 780.373C947.806 882.21 1058.12 891.25 1136.67 865.753C1215.23 840.254 1299.17 768.167 1299.17 642.295V0.000166824" stroke="white" stroke-width="1.323"/>
<path opacity="0.12" d="M250.283 0C286.355 0 314.028 17.5447 333.123 46.294L807.207 698.635L866.632 780.373C940.654 882.21 1050.97 891.25 1129.52 865.753C1208.08 840.254 1292.02 768.167 1292.02 642.295V0.000166824" stroke="white" stroke-width="1.342"/>
<path opacity="0.12" d="M243.131 0C279.204 0 306.877 17.5447 325.971 46.294L800.057 698.635L859.479 780.373C933.504 882.21 1043.82 891.25 1122.37 865.753C1200.93 840.254 1284.87 768.167 1284.87 642.295V0.000166824" stroke="white" stroke-width="1.36"/>
<path opacity="0.12" d="M235.98 0C272.054 0 299.725 17.5447 318.821 46.294L792.907 698.635L852.329 780.373C926.354 882.21 1036.67 891.25 1115.22 865.753C1193.78 840.254 1277.72 768.167 1277.72 642.295V0.000166824" stroke="white" stroke-width="1.379"/>
<path opacity="0.12" d="M228.83 0C264.903 0 292.575 17.5447 311.67 46.294L785.755 698.635L845.18 780.373C919.202 882.21 1029.52 891.25 1108.07 865.753C1186.63 840.254 1270.57 768.167 1270.57 642.295V0.000166824" stroke="white" stroke-width="1.398"/>
<path opacity="0.12" d="M221.68 0C257.752 0 285.424 17.5447 304.52 46.294L778.605 698.635L838.028 780.373C912.051 882.21 1022.37 891.25 1100.92 865.753C1179.48 840.254 1263.42 768.167 1263.42 642.295V0.000166824" stroke="white" stroke-width="1.417"/>
<path opacity="0.12" d="M214.527 0C250.6 0 278.273 17.5447 297.368 46.294L771.453 698.635L830.876 780.373C904.9 882.21 1015.22 891.25 1093.77 865.753C1172.33 840.254 1256.27 768.167 1256.27 642.295V0.000166824" stroke="white" stroke-width="1.436"/>
<path opacity="0.12" d="M207.375 0C243.448 0 271.121 17.5447 290.216 46.294L764.301 698.635L823.724 780.373C897.748 882.21 1008.06 891.25 1086.62 865.753C1165.17 840.254 1249.11 768.167 1249.11 642.295V0.000166824" stroke="white" stroke-width="1.454"/>
<path opacity="0.12" d="M200.225 0C236.298 0 263.969 17.5447 283.065 46.294L757.15 698.635L816.574 780.373C890.597 882.21 1000.91 891.25 1079.47 865.753C1158.02 840.254 1241.96 768.167 1241.96 642.295V0.000166824" stroke="white" stroke-width="1.473"/>
<path opacity="0.12" d="M193.074 0C229.146 0 256.819 17.5447 275.914 46.294L750 698.635L809.422 780.373C883.447 882.21 993.763 891.25 1072.32 865.753C1150.87 840.254 1234.81 768.167 1234.81 642.295V0.000166824" stroke="white" stroke-width="1.492"/>
<path opacity="0.12" d="M185.924 0C221.997 0 249.669 17.5447 268.765 46.294L742.849 698.635L802.273 780.373C876.296 882.21 986.614 891.25 1065.17 865.753C1143.72 840.254 1227.66 768.167 1227.66 642.295V0.000166824" stroke="white" stroke-width="1.511"/>
<path opacity="0.12" d="M178.771 0C214.845 0 242.517 17.5447 261.612 46.294L735.697 698.635L795.12 780.373C869.144 882.21 979.462 891.25 1058.01 865.753C1136.57 840.254 1220.51 768.167 1220.51 642.295V0.000166824" stroke="white" stroke-width="1.53"/>
<path opacity="0.12" d="M171.621 0C207.694 0 235.366 17.5447 254.462 46.294L728.547 698.635L787.97 780.373C861.994 882.21 972.311 891.25 1050.86 865.753C1129.42 840.254 1213.36 768.167 1213.36 642.295V0.000166824" stroke="white" stroke-width="1.549"/>
<path opacity="0.12" d="M164.471 0C200.543 0 228.216 17.5447 247.311 46.294L721.396 698.635L780.82 780.373C854.843 882.21 965.161 891.25 1043.71 865.753C1122.27 840.254 1206.21 768.167 1206.21 642.295L1206.21 0.000166824" stroke="white" stroke-width="1.567"/>
<path opacity="0.12" d="M157.32 0C193.393 0 221.065 17.5447 240.16 46.294L714.244 698.635L773.669 780.373C847.691 882.21 958.009 891.25 1036.56 865.753C1115.12 840.254 1199.06 768.167 1199.06 642.295V0.000166824" stroke="white" stroke-width="1.586"/>
<path opacity="0.12" d="M150.168 0C186.241 0 213.914 17.5447 233.009 46.294L707.093 698.635L766.516 780.373C840.54 882.21 950.858 891.25 1029.41 865.753C1107.97 840.254 1191.91 768.167 1191.91 642.295V0.000166824" stroke="white" stroke-width="1.605"/>
<path opacity="0.12" d="M143.018 0C179.091 0 206.762 17.5447 225.858 46.294L699.944 698.635L759.367 780.373C833.391 882.21 943.707 891.25 1022.26 865.753C1100.82 840.254 1184.76 768.167 1184.76 642.295V0.000166824" stroke="white" stroke-width="1.624"/>
<path opacity="0.12" d="M135.867 0C171.94 0 199.612 17.5447 218.707 46.294L692.792 698.635L752.217 780.373C826.239 882.21 936.557 891.25 1015.11 865.753C1093.67 840.254 1177.61 768.167 1177.61 642.295V0.000166824" stroke="white" stroke-width="1.643"/>
<path opacity="0.12" d="M128.717 0C164.789 0 192.462 17.5447 211.557 46.294L685.642 698.635L745.065 780.373C819.089 882.21 929.407 891.25 1007.96 865.753C1086.52 840.254 1170.45 768.167 1170.45 642.295V0.000166824" stroke="white" stroke-width="1.661"/>
<path opacity="0.12" d="M121.564 0C157.638 0 185.31 17.5447 204.405 46.294L678.49 698.635L737.914 780.373C811.937 882.21 922.255 891.25 1000.81 865.753C1079.36 840.254 1163.3 768.167 1163.3 642.295L1163.3 0.000166824" stroke="white" stroke-width="1.68"/>
<path opacity="0.12" d="M114.414 0C150.487 0 178.16 17.5447 197.255 46.294L671.34 698.635L730.762 780.373C804.787 882.21 915.105 891.25 993.656 865.753C1072.21 840.254 1156.15 768.167 1156.15 642.295V0.000166824" stroke="white" stroke-width="1.699"/>
<path opacity="0.12" d="M107.264 0C143.337 0 171.008 17.5447 190.105 46.294L664.19 698.635L723.613 780.373C797.635 882.21 907.953 891.25 986.504 865.753C1065.06 840.254 1149 768.167 1149 642.295V0.000166824" stroke="white" stroke-width="1.718"/>
<path opacity="0.12" d="M100.113 0C136.186 0 163.858 17.5447 182.953 46.294L657.039 698.635L716.461 780.373C790.485 882.21 900.803 891.25 979.354 865.753C1057.91 840.254 1141.85 768.167 1141.85 642.295V0.000166824" stroke="white" stroke-width="1.737"/>
<path opacity="0.12" d="M92.9629 0C129.035 0 156.708 17.5447 175.803 46.294L649.888 698.635L709.311 780.373C783.335 882.21 893.652 891.25 972.204 865.753C1050.76 840.254 1134.7 768.167 1134.7 642.295V0.000166824" stroke="white" stroke-width="1.755"/>
<path opacity="0.12" d="M85.8105 0C121.884 0 149.556 17.5447 168.651 46.294L642.736 698.635L702.16 780.373C776.183 882.21 886.501 891.25 965.052 865.753C1043.61 840.254 1127.55 768.167 1127.55 642.295V0.000166824" stroke="white" stroke-width="1.774"/>
<path opacity="0.12" d="M78.6602 0C114.733 0 142.405 17.5447 161.501 46.294L635.586 698.635L695.009 780.373C769.033 882.21 879.349 891.25 957.9 865.753C1036.46 840.254 1120.4 768.167 1120.4 642.295V0.000166824" stroke="white" stroke-width="1.793"/>
<path opacity="0.12" d="M71.5098 0C107.582 0 135.255 17.5447 154.35 46.294L628.436 698.635L687.859 780.373C761.881 882.21 872.199 891.25 950.75 865.753C1029.31 840.254 1113.25 768.167 1113.25 642.295V0.000166824" stroke="white" stroke-width="1.812"/>
<path opacity="0.12" d="M64.3594 0C100.432 0 128.104 17.5447 147.199 46.294L621.284 698.635L680.707 780.373C754.731 882.21 865.049 891.25 943.6 865.753C1022.16 840.254 1106.1 768.167 1106.1 642.295V0.000166824" stroke="white" stroke-width="1.831"/>
<path opacity="0.12" d="M57.207 0C93.2802 0 120.953 17.5447 140.048 46.294L614.132 698.635L673.557 780.373C747.579 882.21 857.897 891.25 936.448 865.753C1015.01 840.254 1098.94 768.167 1098.94 642.295V0.000166824" stroke="white" stroke-width="1.85"/>
<path opacity="0.12" d="M50.0566 0C86.1297 0 113.801 17.5447 132.898 46.294L606.982 698.635L666.405 780.373C740.429 882.21 850.746 891.25 929.298 865.753C1007.86 840.254 1091.79 768.167 1091.79 642.295V0.000166824" stroke="white" stroke-width="1.868"/>
<path opacity="0.12" d="M42.9062 0C78.9795 0 106.651 17.5447 125.746 46.294L599.832 698.635L659.255 780.373C733.278 882.21 843.596 891.25 922.147 865.753C1000.71 840.254 1084.64 768.167 1084.64 642.295V0.000166824" stroke="white" stroke-width="1.887"/>
<path opacity="0.12" d="M35.7539 0C71.8263 0 99.4989 17.5447 118.594 46.294L592.679 698.635L652.102 780.373C726.126 882.21 836.444 891.25 914.995 865.753C993.555 840.254 1077.49 768.167 1077.49 642.295V0.000166824" stroke="white" stroke-width="1.906"/>
<path opacity="0.12" d="M28.6016 0C64.6748 0 92.3474 17.5447 111.443 46.294L585.527 698.635L644.951 780.373C718.973 882.21 829.292 891.25 907.843 865.753C986.402 840.254 1070.34 768.167 1070.34 642.295L1070.34 0.000166824" stroke="white" stroke-width="1.925"/>
<path opacity="0.12" d="M21.4512 0C57.5244 0 85.197 17.5447 104.293 46.294L578.377 698.635L637.799 780.373C711.823 882.21 822.141 891.25 900.692 865.753C979.252 840.254 1063.19 768.167 1063.19 642.295V0.000166824" stroke="white" stroke-width="1.944"/>
<path opacity="0.12" d="M14.3008 0C50.3738 0 78.0458 17.5447 97.1425 46.294L571.227 698.635L630.649 780.373C704.672 882.21 814.99 891.25 893.541 865.753C972.102 840.254 1056.04 768.167 1056.04 642.295V0.000166824" stroke="white" stroke-width="1.962"/>
<path opacity="0.12" d="M7.15039 0C43.2226 0 70.895 17.5447 89.9911 46.294L564.077 698.635L623.498 780.373C697.522 882.21 807.84 891.25 886.391 865.753C964.95 840.254 1048.89 768.167 1048.89 642.295V0.000166824" stroke="white" stroke-width="1.981"/>
<path opacity="0.12" d="M0 0C36.0722 0 63.7448 17.5447 82.8409 46.294L556.925 698.635L616.348 780.373C690.372 882.21 800.69 891.25 879.241 865.753C957.799 840.254 1041.74 768.167 1041.74 642.295V0.000166824" stroke="white" stroke-width="2"/>
</g>
<defs>
<clipPath id="clip0">
<rect width="1764" height="878" fill="white"/>
</clipPath>
</defs>
</svg>
